<?xml version="1.0" encoding="utf-8"?>
<!-- Generator: Adobe Illustrator 24.0.1, SVG Export Plug-In . SVG Version: 6.00 Build 0)  -->
<svg version="1.1" xmlns="http://www.w3.org/2000/svg" xmlns:xlink="http://www.w3.org/1999/xlink" x="0px" y="0px"
	 viewBox="0 0 129.9 218.8" style="enable-background:new 0 0 129.9 218.8;" xml:space="preserve">
<style type="text/css">
	.st0{display:none;}
	.st1{display:inline;}
	.st2{fill:#F9F1E1;}
	.st3{fill:#EAF4FE;}
	.st4{fill:none;stroke:#0561FC;stroke-width:6.8376;stroke-miterlimit:10;}
	.st5{fill:#0561FC;}
	.st6{fill:#C5E1F9;}
	.st7{fill:#7EB3FF;}
	.st8{fill:#B5D5EA;}
	.st9{fill:#E1EBF4;}
	.st10{fill:#9AC7F7;}
	.st11{fill:none;stroke:#0561FC;stroke-width:6.8376;}
	.st12{fill:none;stroke:#7EB3FF;stroke-width:6.8376;}
	.st13{fill:none;stroke:#0561FC;stroke-width:6.8376;stroke-linecap:round;}
	.st14{fill:none;stroke:#0561FC;stroke-width:7.1001;}
	.st15{fill:#B6D9EF;}
	.st16{fill:none;stroke:#9AC7F7;stroke-width:6.8376;}
	.st17{fill:none;stroke:#0561FC;stroke-width:6.8376;stroke-linejoin:bevel;}
	.st18{fill:none;stroke:#0561FC;stroke-width:6.8376;stroke-linecap:round;stroke-linejoin:round;}
	.st19{fill:none;stroke:#0561FC;stroke-width:5.0237;}
	.st20{fill:none;stroke:#0450CF;stroke-width:6.8376;}
	.st21{fill:none;stroke:#C5E1F9;stroke-width:6.8376;}
	.st22{fill:#FFBF0D;}
	.st23{fill:#B2D2EA;}
	.st24{fill:none;stroke:#0561FC;stroke-width:6.9311;}
	.st25{fill:none;stroke:#0561FC;stroke-width:6.8376;stroke-linecap:round;stroke-miterlimit:10;}
	.st26{fill:#FFFFFF;}
	.st27{fill:#FFFFFF;stroke:#0561FC;stroke-width:6.8376;}
</style>
<g id="Layer_2">
	<g class="st0">
		<g class="st1">
			<rect x="-41.6" y="-3.4" class="st2" width="218.8" height="218.8"/>
		</g>
	</g>
</g>
<g id="Layer_3">
</g>
<g id="Layer_4">
	<g>
		<path class="st11" d="M126.5,205.1c0,5.7-4.4,10.3-9.8,10.3H13.2c-5.4,0-9.8-4.6-9.8-10.3V13.7C3.4,8,7.8,3.4,13.2,3.4h103.5
			c5.4,0,9.8,4.6,9.8,10.3V205.1z"/>
		<line class="st11" x1="3.4" y1="30.8" x2="126.5" y2="30.8"/>
		<line class="st11" x1="51.3" y1="17.1" x2="78.6" y2="17.1"/>
		<line class="st11" x1="126.5" y1="184.6" x2="3.4" y2="184.6"/>
		<line class="st11" x1="68.3" y1="198.3" x2="61.6" y2="198.3"/>
		<g>
			<rect x="17.1" y="157.3" class="st10" width="13.7" height="13.7"/>
			<rect x="44.4" y="157.3" class="st10" width="13.7" height="13.7"/>
			<rect x="71.8" y="157.3" class="st10" width="13.7" height="13.7"/>
			<rect x="99.1" y="157.3" class="st10" width="13.7" height="13.7"/>
		</g>
		<g>
			<path class="st4" d="M78.2,115.9h-3.4c-17,0-30.8-13.8-30.8-30.8v-3.4"/>
			<path class="st4" d="M26.9,78.2V64.6c0-3.8,3.1-6.8,6.8-6.8h13.7c3.8,0,3.4,3.1,3.4,6.8v13.7c0,3.8,0.4,6.8-3.4,6.8H44"/>
			<path class="st4" d="M81.6,132.9h13.7c3.8,0,6.8-3.1,6.8-6.8v-13.7c0-3.8-3.1-3.4-6.8-3.4H81.6c-3.8,0-6.8-0.4-6.8,3.4v3.4"/>
			<path class="st4" d="M26.9,68v10.3c0,30.2,24.5,54.7,54.7,54.7h10.3"/>
		</g>
	</g>
</g>
</svg>
